# xmcd CD database file
#
# Track frame offsets:
#	150
#	16870
#	40022
#	57167
#	76495
#	92777
#	109302
#	126855
#	146357
#	164105
#
# Disc length: 2420 seconds
#
# Revision: 0
# Processed by: cddbd v1.5.1PL0 Copyright (c) Steve Scherf et al.
# Submitted via: CDex 1.50Beta7
#
DISCID=8109720a
DTITLE=Lisa Guyer Band  (w/Barry Goudreau) - Gypsy Girl [CD)
DYEAR=1997
DGENRE=Blues
TTITLE0=Gypsy Girl
TTITLE1=Brother Louie
TTITLE2=Bluer Than You
TTITLE3=Given You Up for Dead
TTITLE4=Tears
TTITLE5=Vending Machine Repairman
TTITLE6=House of Glass
TTITLE7=Change Blowin' Your Way
TTITLE8=Telephone Blues
TTITLE9=Move On
EXTD=YEAR: 1997
EXTT0=
EXTT1=
EXTT2=
EXTT3=
EXTT4=
EXTT5=
EXTT6=
EXTT7=
EXTT8=
EXTT9=
PLAYORDER=
